<svg width="331" height="202" viewBox="0 0 331 202" fill="none" xmlns="http://www.w3.org/2000/svg">
<path opacity="0.8" fill-rule="evenodd" clip-rule="evenodd" d="M66.4596 37.8443C69.8633 27.1718 73.0309 20.527 75.9571 17.9073C84.0609 10.6566 95.2654 14.6027 97.6475 15.1679C106.016 17.1588 103.295 4.05759 110.474 1.39458C115.259 -0.379918 119.194 1.78919 122.282 7.9019C125.016 2.19908 129.182 -0.413015 134.78 0.0528851C143.179 0.7581 146.118 28.8929 157.659 22.7343C169.203 16.5732 183.354 15.1654 189.399 24.3204C190.706 26.3011 191.206 23.2282 200.093 12.7366C208.98 2.24236 217.84 -2.381 236.019 3.72917C244.285 6.5042 251.082 14.0273 256.419 26.2961C256.419 43.8068 269.407 54.1737 295.379 57.3892C334.342 62.2137 304.099 103.76 256.419 115.927C208.736 128.097 98.9566 134.665 39.3838 103.921C-0.331406 83.4287 8.69384 61.4015 66.457 37.8443H66.4596Z" fill="url(#paint0_linear_223_17071)"/>
<path d="M164.156 192.584C203.832 192.584 235.996 185.2 235.996 176.092C235.996 166.983 203.832 159.6 164.156 159.6C124.48 159.6 92.3161 166.983 92.3161 176.092C92.3161 185.2 124.48 192.584 164.156 192.584Z" fill="url(#paint1_linear_223_17071)"/>
<path opacity="0.675" fill-rule="evenodd" clip-rule="evenodd" d="M285.443 196.67C231.427 210.108 47.0538 194.738 27.4297 187.719C17.8783 184.3 9.26886 177.871 1.60407 168.431C0.746208 167.376 0.206989 166.101 0.0487206 164.754C-0.109547 163.408 0.119596 162.044 0.709673 160.821C1.29975 159.598 2.22667 158.566 3.38333 157.843C4.53999 157.121 5.87918 156.737 7.24614 156.738H329.429C336.116 174.401 321.454 187.711 285.443 196.67Z" fill="url(#paint2_linear_223_17071)"/>
<path d="M219.283 131.893L194.715 103.399C194.134 102.719 193.412 102.172 192.598 101.794C191.785 101.416 190.898 101.217 190 101.209H137.173C135.361 101.209 133.638 102.034 132.457 103.399L107.89 131.893V147.535H219.283V131.893Z" fill="url(#paint3_linear_223_17071)"/>
<path d="M212.322 148.11L190.819 123.293C190.299 122.707 189.658 122.239 188.94 121.92C188.221 121.602 187.442 121.44 186.655 121.447H140.518C138.934 121.447 137.386 122.099 136.354 123.293L114.851 148.11V161.741H212.322V148.11Z" fill="url(#paint4_linear_223_17071)"/>
<path d="M219.283 165.461C219.283 167.632 218.297 169.585 216.742 170.894L216.426 171.148C215.193 172.075 213.687 172.576 212.139 172.574H115.036C114.158 172.574 113.319 172.416 112.543 172.126L112.158 171.973C110.888 171.413 109.809 170.499 109.051 169.343C108.294 168.186 107.89 166.837 107.89 165.458V132.063H134.917C137.902 132.063 140.307 134.5 140.307 137.456V137.494C140.307 140.452 142.74 142.838 145.726 142.838H181.447C182.882 142.836 184.258 142.271 185.273 141.266C186.289 140.26 186.862 138.897 186.866 137.474C186.866 134.505 189.273 132.063 192.256 132.063H219.286L219.283 165.461Z" fill="url(#paint5_linear_223_17071)"/>
<defs>
<linearGradient id="paint0_linear_223_17071" x1="171.166" y1="94.0712" x2="171.166" y2="-22.2346" gradientUnits="userSpaceOnUse">
<stop stop-color="#DEDEDE" stop-opacity="0"/>
<stop offset="1" stop-color="#A9A9A9" stop-opacity="0.3"/>
</linearGradient>
<linearGradient id="paint1_linear_223_17071" x1="156.67" y1="192.584" x2="156.67" y2="159.6" gradientUnits="userSpaceOnUse">
<stop stop-color="white" stop-opacity="0"/>
<stop offset="1" stop-color="#96A1C5" stop-opacity="0.373"/>
</linearGradient>
<linearGradient id="paint2_linear_223_17071" x1="165.5" y1="202" x2="165.5" y2="147.832" gradientUnits="userSpaceOnUse">
<stop stop-color="white" stop-opacity="0"/>
<stop offset="1" stop-color="#919191" stop-opacity="0.15"/>
</linearGradient>
<linearGradient id="paint3_linear_223_17071" x1="163.586" y1="101.209" x2="163.586" y2="122.033" gradientUnits="userSpaceOnUse">
<stop stop-color="#5389F5"/>
<stop offset="1" stop-color="#416FDC"/>
</linearGradient>
<linearGradient id="paint4_linear_223_17071" x1="176.594" y1="161.741" x2="176.594" y2="119.305" gradientUnits="userSpaceOnUse">
<stop stop-color="#DCE9FF"/>
<stop offset="1" stop-color="#B6CFFF"/>
</linearGradient>
<linearGradient id="paint5_linear_223_17071" x1="163.588" y1="132.063" x2="163.588" y2="172.574" gradientUnits="userSpaceOnUse">
<stop stop-color="#7CA5F7"/>
<stop offset="1" stop-color="#C4D6FC"/>
</linearGradient>
</defs>
</svg>
