<svg width="24" height="24" viewBox="0 0 24 24" fill="none" xmlns="http://www.w3.org/2000/svg">
<path d="M2 2.8C2 2.35817 2.35817 2 2.8 2H10.2C10.6418 2 11 2.35817 11 2.8V10.2C11 10.6418 10.6418 11 10.2 11H2.8C2.35817 11 2 10.6418 2 10.2V2.8ZM2 13.8C2 13.3582 2.35817 13 2.8 13H10.2C10.6418 13 11 13.3582 11 13.8V21.2C11 21.6418 10.6418 22 10.2 22H2.8C2.35817 22 2 21.6418 2 21.2V13.8ZM13 2.8C13 2.35817 13.3582 2 13.8 2H21.2C21.6418 2 22 2.35817 22 2.8V10.2C22 10.6418 21.6418 11 21.2 11H13.8C13.3582 11 13 10.6418 13 10.2V2.8ZM13 13.8C13 13.3582 13.3582 13 13.8 13H21.2C21.6418 13 22 13.3582 22 13.8V21.2C22 21.6418 21.6418 22 21.2 22H13.8C13.3582 22 13 21.6418 13 21.2V13.8Z" fill="white"/>
</svg>
